<svg id="Calque_1" data-name="Calque 1" xmlns="http://www.w3.org/2000/svg" viewBox="0 0 389.63 189.65"><defs><style>.cls-1{fill:#fff;}</style></defs><path class="cls-1" d="M449.7,194.38c.67-.33.71-1,.87-1.61.59-2.21,1.14-4.43,1.74-6.63a6.28,6.28,0,0,1,.7-1.69,1.85,1.85,0,0,1,3.36.12,8.13,8.13,0,0,1,.62,1.9A117.42,117.42,0,0,0,461.38,201c.22.56.46,1.11.73,1.77,2.13-.2,4.18-.43,6.23-.58,4.23-.31,8.46-.57,12.69-.87a2.88,2.88,0,0,1,2.17.67l.21.38c-.33,1.78-.46,1.86-2.25,2l-17.44,1.68a3.37,3.37,0,0,0,.14.88c2.26,4.55,4.51,9.11,6.84,13.62a36.42,36.42,0,0,0,2.32,3.49c.13.19.29.35.4.54a1.71,1.71,0,0,1-.18,2.41,1.67,1.67,0,0,1-2.4-.27,8.24,8.24,0,0,1-1.37-1.7c-2-3.39-3.93-6.76-5.75-10.22-1.37-2.62-2.52-5.36-3.88-8.27l-9,1.15c-.46,2-.9,3.94-1.41,6.13l3.65-.27a13.53,13.53,0,0,1,1.67-.12,1.52,1.52,0,0,1,1.43,1.23,1.37,1.37,0,0,1-.8,1.67,8,8,0,0,1-2.39.7c-4.16.48-8.34.84-12.5,1.36-4.43.55-8.85,1.23-13.27,1.86-2,.28-4,.61-6,.89-1.3.18-2-.46-2.12-2-.14-1.79-.21-3.58-.25-5.37s0-3.46,0-5.2a12.36,12.36,0,0,0-.14-1.28l-7.07.49c-.55,0-1.11.15-1.67.16a1.78,1.78,0,0,1-1.94-1.47,1.74,1.74,0,0,1,1.68-1.76c1.55-.19,3.12-.27,4.68-.41,1.39-.12,2.78-.27,4.15-.41.37-1.2.26-5.66-.22-8-.48,0-1.09-.1-1.47.14-4.66,2.95-9.91,4.64-14.9,6.86-3.11,1.38-6.29,2.6-9.67,4,.43.92.83,1.8,1.28,2.75l6.85.68c3.23.34,6.45.68,9.67,1a7.69,7.69,0,0,1,1.63.37c1,.33,1.47,1,1.32,1.84s-.72,1.23-1.75,1.22-1.9-.07-2.84-.17c-3.84-.39-7.67-.81-11.51-1.2a8.39,8.39,0,0,0-1,0,1.77,1.77,0,0,0,.1.57c1.88,3,3.62,6.05,6.09,8.61a4.16,4.16,0,0,1,.54.64,1.55,1.55,0,0,1,0,1.88,1.4,1.4,0,0,1-1.93.48,8.71,8.71,0,0,1-2.36-2.07c-2.05-2.93-4.05-5.9-5.92-8.94a3.11,3.11,0,0,0-2.71-1.79,81.85,81.85,0,0,0-12.23.06,5.93,5.93,0,0,1-2-.14,1.53,1.53,0,0,1-1.21-1.44,1.6,1.6,0,0,1,.84-1.69,16,16,0,0,1,2-.88c2.89-1.05,5.78-2.07,8.67-3.12.52-.19,1-.42,1.64-.69l-.46-1.11c-14,4.91-28.57,7.46-43,11.43.52.89,1,1.64,1.41,2.41s.94.48,1.48.45c2.85-.14,5.7-.3,8.55-.42a20.48,20.48,0,0,1,2.35,0,1.43,1.43,0,0,1,1.48,1.32,1.49,1.49,0,0,1-1.32,1.66,27.56,27.56,0,0,1-3,.35c-4.79.37-9.6.61-14.38,1.13-5.27.58-10.54,1.26-15.77,2.16-6.49,1.11-12.93,2.49-19.4,3.74a9.34,9.34,0,0,1-1.67.14,1.84,1.84,0,0,1-1.75-1.34,1.63,1.63,0,0,1,.76-2,14.69,14.69,0,0,1,2.26-1.09c9.06-3.54,18.38-6.3,27.71-9,1.66-.49,3.34-.92,5-1.39.36-.11.7-.29,1.07-.44l-5.94-12.7c-.74-.05-1.57.13-2.07-.2a3.78,3.78,0,0,1-1.06-1.81,21.56,21.56,0,0,1-.59-2.2c-1,0-2-.06-3,0q-10.87.8-21.74,1.64c-1.39.11-2.77.36-4.15.54a9.57,9.57,0,0,1-1.5.12,1.58,1.58,0,0,1-1.72-1.48c0-.8.44-1.37,1.42-1.58a33.49,33.49,0,0,1,3.3-.58c3.56-.39,7.11-.83,10.67-1.1,5.58-.41,11.16-.68,16.74-1a176.68,176.68,0,0,1,19.93,0c4.64.22,9.28.4,13.9.79s9.45,1,14.17,1.52c1.1.13,2.2.45,3.08-.61A1.33,1.33,0,0,1,381,194c6.57-1,13.09-2.36,19.78-2.41,4.64,0,9.28-.22,13.93-.3,1,0,2.09.14,3.19.23,1.33-2,2.58-1.79,3.74.49,1.4-.09,2.84-.24,4.29-.27a193.43,193.43,0,0,1,20.29.27,12.15,12.15,0,0,1,2.48.43c1,.29,1.24.87,1,2s-1,1.16-1.74,1.18-1.66-.17-2.49-.21a212.49,212.49,0,0,0-22.29-.15,12.61,12.61,0,0,0-1.26.21c.18,2.79.35,5.49.53,8.28,8.64-.43,17.11-.49,25.71-.19.56-2.57,1.17-5.29,1.73-8A3.07,3.07,0,0,0,449.7,194.38Zm-64.16,6.31c-.16-1.21-.93-1.23-1.56-1.31-6.42-.82-12.84-1.69-19.27-2.39-3.67-.41-7.35-.63-11-.76-5.86-.21-11.73-.27-17.6-.38a6.19,6.19,0,0,0-1.14.21c2.29,5.54,4.68,10.86,7.44,16,4.57-1.13,9-2.21,13.44-3.34q12.4-3.17,24.79-6.4C382.26,201.91,383.86,201.26,385.54,200.69Zm37,16.62a7.27,7.27,0,0,0,.82,0c3.37-.49,6.74-1,10.11-1.48,3.82-.5,7.66-.93,11.48-1.42.39,0,1-.27,1.09-.53a23.88,23.88,0,0,0,1.06-5.42l-2.28.52a19.19,19.19,0,0,1-2.47.47c-1.27.08-1.84-.57-1.75-1.84,0-.26.09-.51.17-1l-18.33.44A99.1,99.1,0,0,0,422.55,217.31Zm-10.66-22.68c-4.24.13-8.23.17-12.21.4a65.09,65.09,0,0,0-11.78,1.39,8.34,8.34,0,0,0,1.84.88c2.3.85,2.86,3.09.88,4.65a3.86,3.86,0,0,0-.47.54l.74,1.22C395.75,202.12,410.43,195.84,411.89,194.63Zm46.48,8.64-3.75-11.62h-.26c-.9,4.08-1.81,8.17-2.77,12.5ZM341.83,218.53c-.5-.91-.87-1.57-1.31-2.35l-14,4,.08.3Zm47.86-9.11c-.41-.55-.62-1-.77-1a10.71,10.71,0,0,0-1.72.47l.07.4Z" transform="translate(-202.41 -38.61)"/><path class="cls-1" d="M489.11,116.29c-1.94-9-1.83-18-1.64-26.95.17-8,.52-16,.78-24a3.36,3.36,0,0,0-.29-1.68c-.26.59-.55,1.16-.78,1.75-3.76,9.51-7.47,19-11.28,28.53-1.06,2.64-2.35,5.19-3.61,7.75a14,14,0,0,1-1.81,2.81c-2.08,2.45-4.71,2.36-6.61-.26a15.52,15.52,0,0,1-1.78-3.4A77.58,77.58,0,0,1,458.33,87a7.63,7.63,0,0,0-.76-2.39,12.94,12.94,0,0,0-.21,1.39q-.53,10-1,19.94a10.47,10.47,0,0,0,.28,2.29,2.11,2.11,0,0,1-1.45,2.49c-.95.18-1.76-.54-2-1.82a9.37,9.37,0,0,1-.1-1.5,247.85,247.85,0,0,1,1-25c.54-5.57.77-11.16,1.14-16.74,0-.17,0-.34,0-.51.1-1.15.62-1.79,1.53-1.9a1.71,1.71,0,0,1,1.93,1.67c.25,1.71.36,3.45.55,5.17a163.34,163.34,0,0,0,4.06,23.45c.63,2.37,1.48,4.68,2.32,7a15.92,15.92,0,0,0,1.31,2.28,4,4,0,0,0,2-2.39c1.84-4,3.72-8,5.37-12.1,3.33-8.24,6.51-16.54,9.8-24.79.77-1.92,1.75-3.75,2.65-5.61a11.23,11.23,0,0,1,.67-1.16c.79-1.21,1.65-1.69,2.6-1.38a2.3,2.3,0,0,1,1.52,2.38c.09,1.95.18,3.91.12,5.86-.23,7.27-.6,14.54-.79,21.81a197.78,197.78,0,0,0,.27,21.64c.19,2.28.58,4.54.91,6.81a16.21,16.21,0,0,0,.58,2,28.56,28.56,0,0,0,1.18-2.75c1.3-4.28,2.59-8.56,3.81-12.86q5.63-19.77,13.15-38.89c1.11-2.81,2.15-5.64,3.23-8.46.18-.47.37-.94.58-1.39a1.71,1.71,0,0,1,1.71-1.13,1.8,1.8,0,0,1,1.7,1.4,8.24,8.24,0,0,1,.22,2.32c-.19,3.74-.44,7.48-.65,11.23-.43,7.93-.87,15.86-1.24,23.8-.22,4.52-.27,9-.45,13.58a122.72,122.72,0,0,0,1.25,22.09c.28,2,.54,4,.81,6,0,.28,0,.56.06.84a1.68,1.68,0,0,1-1.06,1.89,1.78,1.78,0,0,1-2.11-.61c-5.58-6.89-13.39-9.84-21.56-12.05a49,49,0,0,0-15.29-1.63,80.08,80.08,0,0,0-21.5,4.13c-1.42.48-2.79,1.12-4.21,1.61a2.57,2.57,0,0,1-1.6.16,2.15,2.15,0,0,1-1.21-1.19,2.24,2.24,0,0,1,.48-1.63,3.27,3.27,0,0,1,1.44-.8,90.31,90.31,0,0,1,19.75-5.09,61.79,61.79,0,0,1,10.87-.61C484.4,115.84,486.68,116.1,489.11,116.29Zm6.59,1.5a53,53,0,0,1,18.22,8.94c0-.58,0-.84-.07-1.1-.36-3.22-.78-6.44-1.07-9.66-.72-8-.23-16.1.07-24.14s.81-16.31,1.23-24.46l.24-4.45a2.08,2.08,0,0,0-.67.94q-7.08,17.92-12.32,36.48C499.68,106.14,498.39,112.05,495.7,117.79Z" transform="translate(-202.41 -38.61)"/><path class="cls-1" d="M483.41,202.41l-.21-.38a12.45,12.45,0,0,0-.5-1.57c-2.33-5.19-4.7-10.38-7-15.58a14.86,14.86,0,0,1-.85-2.54,1.81,1.81,0,0,1,.89-2.15,1.86,1.86,0,0,1,2.33.22,17.25,17.25,0,0,1,1.51,1.57c3.9,4.54,7.76,9.11,11.71,13.61q4.31,4.92,8.81,9.68c1.61,1.71,3.38,3.26,5.12,4.84a23.07,23.07,0,0,0,2,1.47c0-1.16.12-2,.06-2.88-.24-3.4-.56-6.8-.78-10.21a181,181,0,0,1-.51-24.31,8.19,8.19,0,0,1,.16-1.49,1.79,1.79,0,0,1,1.67-1.43,1.77,1.77,0,0,1,1.83,1,17.07,17.07,0,0,1,.75,2q2.58,7.53,5.16,15.06a9.81,9.81,0,0,0,.45,1c.45-.2.85-.37,1.23-.56a229.32,229.32,0,0,1,40.51-15.35,16,16,0,0,1,4.13-.58c2.35,0,3.29,1.79,2,3.75-1,1.59-2.18,3.11-3.32,4.63a1.39,1.39,0,0,1-1.78.52,1.51,1.51,0,0,1-.89-1.79,7.37,7.37,0,0,1,.68-1.52,7.52,7.52,0,0,1,.57-.82l.64-.95a4.35,4.35,0,0,0-1,0,238.48,238.48,0,0,0-38.69,14.54c-.89.43-1.74.93-2.61,1.4l0,.37c1.18.11,2.36.28,3.54.32,4.13.15,8.28.2,12.41.39a163.51,163.51,0,0,1,20,2q13.3,2.26,26.54,4.79a82,82,0,0,1,8.39,2.29,7.72,7.72,0,0,1,2.62,1.44,2.5,2.5,0,0,1-.27,4.25,12.9,12.9,0,0,1-4,1.62c-3.88.8-7.79,1.52-11.71,2.07-5.42.75-10.87,1.3-16.31,2-4.71.56-9.43,1.1-14.14,1.74-5.59.77-11.17,1.58-16.74,2.48-6.34,1-12.67,2.1-19,3.29-4.17.79-8.29,1.81-12.43,2.76a2.74,2.74,0,0,0-1.69.94c-.83,1-3,1-3.93,0a1.67,1.67,0,0,1,.34-2.72,8.34,8.34,0,0,1,2.31-.95c4.28-1.05,8.54-2.24,12.88-3,10.11-1.82,20.24-3.55,30.4-5.1,7.78-1.18,15.61-2.05,23.43-3,6.26-.8,12.53-1.51,18.79-2.35,2.32-.31,4.61-.87,6.9-1.35a12.32,12.32,0,0,0,1.38-.45c-.1-.2-.13-.35-.2-.37-1.11-.38-2.21-.81-3.34-1.08-11.65-2.71-23.4-4.87-35.26-6.41-9.77-1.28-19.61-1.52-29.7-1.75.2.65.31,1.16.5,1.65q2.56,6.47,5.15,12.91a1.81,1.81,0,0,1-.5,2.39,1.79,1.79,0,0,1-2.47-.7,12.47,12.47,0,0,1-1.23-2.38q-2.55-6.65-5-13.33a2.5,2.5,0,0,0-1.18-1.51c-1.88-1-2.13-1.93-1.2-3.82.07-.15.13-.3.23-.51-1.1-2.92-2.22-5.86-3.33-8.81l-.35,0c0,.53,0,1.06,0,1.58q.63,10.47,1.26,20.93c.09,1.62.15,3.24.14,4.86a6.26,6.26,0,0,1-.33,2,2.88,2.88,0,0,1-4.12,1.93,8.87,8.87,0,0,1-2.43-1.44,86,86,0,0,1-6.63-6.16c-4.9-5.3-9.64-10.74-14.45-16.12-.11-.12-.25-.22-.69-.61.3.77.45,1.2.64,1.62,2.42,5.28,4.87,10.55,7.27,15.84.79,1.73,1.48,3.51,2.15,5.28a4,4,0,0,1,.26,1.63,1.31,1.31,0,0,1-1.12,1.29,1.47,1.47,0,0,1-1.62-.61,9.64,9.64,0,0,1-.55-1.22c-1.75-3.8-3.51-7.61-5.27-11.4A3,3,0,0,0,483.41,202.41Z" transform="translate(-202.41 -38.61)"/><path class="cls-1" d="M436.5,161.18l4.28-.48c.15-2.45.22-4.79.47-7.12.5-4.72,1.1-9.43,1.68-14.15a7.73,7.73,0,0,1,.42-1.62,2.09,2.09,0,0,1,1.73-1.62,2.17,2.17,0,0,1,2.22,1.2,22.38,22.38,0,0,1,1.2,2.4c1,2.36,1.85,4.81,3,7.1,2,3.94,4,7.85,6.25,11.67,1.9,3.29,4,6.44,6.13,9.62a12.12,12.12,0,0,0,2.59,2.82,14,14,0,0,0,.1-1.71c-.19-3.52-.33-7-.62-10.55-.58-6.74-1.24-13.48-1.88-20.21-.12-1.28-.32-2.55-.49-3.83s.23-2,1.18-2.23a1.66,1.66,0,0,1,2.09,1.44,54.16,54.16,0,0,1,.87,6c.68,7.18,1.34,14.37,1.93,21.56.24,2.89.34,5.81.4,8.71a14.7,14.7,0,0,1-.35,3.5c-.47,2.18-2.22,2.84-4,1.55a11.83,11.83,0,0,1-1.88-1.66,17.83,17.83,0,0,1-1.95-2.3c-5.3-7.7-10.29-15.59-14.06-24.17a23.65,23.65,0,0,0-1.91-3.84c-.18,1.17-.41,2.34-.51,3.53-.36,4.17-.67,8.36-1,12.54a1.9,1.9,0,0,0,.48,1.67,1.38,1.38,0,0,1,0,2.21,2.35,2.35,0,0,0-.71,1.94c-.19,4.87-.36,9.73-.57,14.59a14.76,14.76,0,0,1-.33,2.49c-.24,1.15-1.11,1.81-2,1.61a1.87,1.87,0,0,1-1.29-2.25c.84-3.76.49-7.57.57-11.36,0-1.89,0-3.78,0-5.75h-2.27c.28.64.48,1.12.7,1.59.42.91.91,1.8,1.25,2.74a1.6,1.6,0,0,1-.71,2,1.72,1.72,0,0,1-2.23-.56,8.31,8.31,0,0,1-.73-1.31c-.66-1.29-1.31-2.58-2-3.88l-17.78,1.29c0,.54-.08,1.14-.13,1.73-.28,3.29-.56,6.58-.81,9.87-.05.6.1,1.22,0,1.82a4.17,4.17,0,0,1-.5,1.85,1.47,1.47,0,0,1-2.64-.44,5.76,5.76,0,0,1-.17-2c.2-4,.44-8,.66-12.06,0-.27,0-.54,0-.91l-6.52-.67c.36,1.17.69,2.26,1,3.35.12.37.3.72.44,1.08.51,1.39.26,2.36-.68,2.74s-1.82-.08-2.41-1.29a17.36,17.36,0,0,1-1.18-3.13c-1.8-6.8-3.54-13.62-5.31-20.44-.34-1.29-.71-2.58-1.07-3.88a8.82,8.82,0,0,1-.3-1.12,1.48,1.48,0,0,1,.9-1.64,1.39,1.39,0,0,1,1.8.44,5.1,5.1,0,0,1,.91,1.76c1.6,6,3.14,12,4.71,18,.08.31.19.62.36,1.13a3.42,3.42,0,0,1,3.88,0c.91.49,2.29.1,3.66.1.07-.61.16-1.25.21-1.9.64-8,1.09-15.95,2.34-23.86a23.48,23.48,0,0,1,.56-2.62c.28-1,.74-1.9,1.93-2.07a2.37,2.37,0,0,1,2.54,1.52c1.18,2.22,2.35,4.45,3.46,6.71,3.45,7,7.57,13.69,11.65,20.37A4,4,0,0,0,436.5,161.18ZM417,162.75c5.32-.13,10.34-.52,15.35-1.12l-13-23.28C418.11,146.44,417.7,154.48,417,162.75Z" transform="translate(-202.41 -38.61)"/><path class="cls-1" d="M251.4,131.68c-.35,2.49-1.17,2.91-3.19,1.58-.41.18-.86.37-1.3.6l-21.47,11a16.41,16.41,0,0,1-2.12,1,1.59,1.59,0,0,1-2.15-.74,1.53,1.53,0,0,1,.66-2,14.39,14.39,0,0,1,2.27-1.42q10.5-5.43,21-10.82l1.69-.88-4.53-22.14a15.3,15.3,0,0,1-1.56.07,7.21,7.21,0,0,1-1.8-.3,1.75,1.75,0,0,1-.23-3.25,12.07,12.07,0,0,1,1.39-.59l1.85-.66c-.32-3.79-.63-7.56-.95-11.48-.51,0-.94,0-1.37,0-4.35.3-8.7.59-13,.94-1.5.12-3,.38-4.48.6-1.25.19-1.95-.11-2.16-1a1.62,1.62,0,0,1,1.34-2,18.36,18.36,0,0,1,3.29-.62c5.17-.49,10.35-.93,15.52-1.39.16,0,.32-.08.66-.16,0-.62,0-1.28,0-1.93a6.81,6.81,0,0,1,.12-1.5,1.49,1.49,0,0,1,1.6-1.2,1.43,1.43,0,0,1,1.4,1.22,12.32,12.32,0,0,1,.14,1.49c0,.61.06,1.22.09,1.87a8.57,8.57,0,0,0,.91.14c7.49.15,15,.24,22.48.45,2.4.07,4.79.39,7.18.67a7.4,7.4,0,0,1,2.24.66c2,.92,2.26,2.94.59,4.31a10.32,10.32,0,0,1-2.89,1.67c-3.82,1.41-7.67,2.74-11.53,4-3.07,1-6.16,2-9.24,3-.4.13-.78.32-1.06.44,2.84,0,5.75,0,8.65,0a44.82,44.82,0,0,1,11.13,1.31,21.52,21.52,0,0,1,4.67,1.81c3.69,2,4.29,5.49,1.43,8.63a30.68,30.68,0,0,1-4.69,4c-4.3,3.15-9.08,5.51-13.76,8C257.32,128.72,254.41,130.15,251.4,131.68Zm-1.22-3.47a4.21,4.21,0,0,0,.66-.15c6.15-3.3,12.34-6.53,18.43-9.93A49.31,49.31,0,0,0,275,114a7.19,7.19,0,0,0,1.46-1.6c.76-1.08.66-1.85-.44-2.56a12.72,12.72,0,0,0-3-1.43,31.58,31.58,0,0,0-9.41-1.43q-6,0-12.07.09c-1.78,0-3.54.27-5.51.43A167.26,167.26,0,0,0,250.18,128.21Zm-5.8-36.64c.34,3.6.65,7,1,10.48l5.3-1.74,20.52-6.72c.63-.21,1.24-.5,1.85-.76l-.09-.43C263.52,91.77,254.1,91.47,244.38,91.57Z" transform="translate(-202.41 -38.61)"/><path class="cls-1" d="M225.24,194.26l-13.88,6.53a6.93,6.93,0,0,1-1.22.53,1.64,1.64,0,0,1-2.09-.92,1.58,1.58,0,0,1,.66-2.05c.55-.38,1.19-.61,1.76-1,.31-.19.76-.46.8-.74.14-1.13,1-1.65,1.67-2.4,1.25-1.42,2.35-3,3.59-4.58a10,10,0,0,0-1.23-.65c-3.2-1.15-6.42-2.28-9.63-3.42a16,16,0,0,1-2-.82,2.08,2.08,0,0,1-1.25-2,2,2,0,0,1,1.48-1.85,14.57,14.57,0,0,1,2.75-.69c5.94-.71,11.87-1.4,17.81-2a2.69,2.69,0,0,0,1.94-1.09q4.2-5,8.48-10a20,20,0,0,1,2.32-2.18,2.39,2.39,0,0,1,2.66-.44,2.24,2.24,0,0,1,1.29,2.36c-.23,2.22-.57,4.43-.9,6.64-.18,1.15-.43,2.29-.68,3.61h3.74c3.53,0,7,0,10.57.08a8.4,8.4,0,0,1,2.92.63,2.17,2.17,0,0,1,.53,4,12.87,12.87,0,0,1-3.24,1.71c-4.77,1.73-9.55,3.45-14.39,5-1.76.57-2.72,1.33-2.73,3.31a42.11,42.11,0,0,1-.64,5.33A12.26,12.26,0,0,1,236,199a2.06,2.06,0,0,1-3.49,1.21,14.69,14.69,0,0,1-1.22-1.15A30.85,30.85,0,0,0,225.24,194.26Zm9.94-13.36c-2.58.15-4.85.27-7.12.44a1.56,1.56,0,0,0-1,.48c-1.7,2.1-3.36,4.25-5.12,6.49,1.19.66,2.18,1.27,3.23,1.76a1.77,1.77,0,0,0,1.24,0q3.5-1.37,7-2.83c.37-.15.84-.51.91-.84C234.61,184.64,234.86,182.89,235.18,180.9Zm16.27,0-.11-.41c-4.16,0-8.32,0-12.53.2l-.87,4.83Zm-32.67,5.76c1.23-1.58,2.5-3,3.71-4.87-4.35.38-8.32.73-12.62,1.46ZM237.39,170l-.43-.19-6.52,7.67h5.47Zm-4.58,25.64a18,18,0,0,0,.69-4.65,21.05,21.05,0,0,0-4.2,1.76Zm-11.12-3.48-2-1-1.82,2.38.26.28C219.21,193.25,220.3,192.76,221.69,192.14Z" transform="translate(-202.41 -38.61)"/><path class="cls-1" d="M362.06,129.19c-6.36,0-11.54-.73-16.34-3.12a23.07,23.07,0,0,1-5.24-3.56c-4.52-4.12-5.46-9.79-2.75-15.28a21.34,21.34,0,0,1,7.64-8.3,45.85,45.85,0,0,1,17.29-7,69.41,69.41,0,0,1,9.63-1.19,45.42,45.42,0,0,1,20.64,3.49,13.79,13.79,0,0,1,5.2,3.58,5.67,5.67,0,0,1,1.05,1.87,1.59,1.59,0,0,1-.94,1.93,1.49,1.49,0,0,1-1.95-.84,6.53,6.53,0,0,0-3.2-2.83,32,32,0,0,0-9.39-3A52.72,52.72,0,0,0,354.57,98a32.82,32.82,0,0,0-9.66,5.65,16.46,16.46,0,0,0-4.19,5.39,9.08,9.08,0,0,0,2,10.91,20,20,0,0,0,9.76,4.9,43,43,0,0,0,15.66.42,54.36,54.36,0,0,0,17.7-5.41,25.35,25.35,0,0,0,7.1-5,17.41,17.41,0,0,0,2.38-3.22,4.27,4.27,0,0,0-.52-5.3,16.22,16.22,0,0,0-3.62-2.92,28.5,28.5,0,0,0-8.35-2.92A62.13,62.13,0,0,0,371.52,99a23.88,23.88,0,0,0-8.75,1.26,8.12,8.12,0,0,1-1.45.37,1.43,1.43,0,0,1-1.62-.92,1.4,1.4,0,0,1,.52-1.78A5.84,5.84,0,0,1,362,97a31.76,31.76,0,0,1,6-1.31A54.17,54.17,0,0,1,389.75,99a18.1,18.1,0,0,1,6.82,4.15c3.23,3.24,3.7,7.09,1.34,11a19.29,19.29,0,0,1-5.29,5.55,49.26,49.26,0,0,1-17.5,7.79A55.51,55.51,0,0,1,362.06,129.19Z" transform="translate(-202.41 -38.61)"/><path class="cls-1" d="M309.18,145.74c.52,5.06,1,10.13,1.59,15.18a123,123,0,0,0,3.51,17.4,7,7,0,0,1,.25,1,1.76,1.76,0,0,1-1.19,1.82,1.58,1.58,0,0,1-1.78-.94,4.26,4.26,0,0,1-.28-.78,125,125,0,0,1-5.08-28.84c-.17-2.45-.37-4.91-.48-7.37a16.79,16.79,0,0,1,.18-3,2.08,2.08,0,0,1,1.61-1.93,2.17,2.17,0,0,1,2.42,1.1,12.15,12.15,0,0,1,.7,1.15,51.21,51.21,0,0,0,8.6,11.52c3.2,3.29,6.27,6.71,9.55,9.91,2.77,2.68,5.7,5.21,8.69,7.64a20.34,20.34,0,0,0,7.84,4c1.83.46,2.3.18,2.69-1.67a16.9,16.9,0,0,0-.25-6.83,240.28,240.28,0,0,0-6.19-25.22,9.57,9.57,0,0,1-.32-1.13,1.53,1.53,0,0,1,.88-1.81,1.47,1.47,0,0,1,1.94.5,8.54,8.54,0,0,1,1.12,2.41c1.26,4.63,2.55,9.27,3.67,13.94q1.44,6,2.5,12.14a35.93,35.93,0,0,1,.2,5.69,4.92,4.92,0,0,1-.22,1.31c-.89,3.61-3.16,5-6.77,4.06a24.28,24.28,0,0,1-8.8-4.39,78.29,78.29,0,0,1-7.69-6.49c-5-5-9.77-10.16-14.56-15.32-1.47-1.59-2.68-3.4-4-5.11Z" transform="translate(-202.41 -38.61)"/><path class="cls-1" d="M370.07,173.59c.07.95.35,2-.75,2.52s-1.82,0-2.46-.94l-6.53,3.1c-1,.45-1.92.9-2.9,1.31a4.49,4.49,0,0,1-1.28.34,1.42,1.42,0,0,1-1.53-.8,1.46,1.46,0,0,1,.29-1.85,9,9,0,0,1,1.84-1.12c2.91-1.4,5.84-2.78,8.82-4.19-.13-.53-.21-1-.34-1.37q-3.71-11.91-7.44-23.82a2.64,2.64,0,0,1-.14-.48,3.88,3.88,0,0,0-2.84-3.28,16.37,16.37,0,0,1-4-2.33,4,4,0,0,1-1.21-1.9,1.32,1.32,0,0,1,.83-1.64,1.27,1.27,0,0,1,1.66.34c1.4,1.8,3.43,2.5,5.45,3.09,9.37,2.75,18.76,5.38,28.15,8.08,2.62.75,5.25,1.51,7.84,2.37a15.07,15.07,0,0,1,3.17,1.5c3.31,2,3.59,4.82.6,7.33a28.08,28.08,0,0,1-5.07,3.22c-2.83,1.46-5.75,2.72-8.63,4.07l-12,5.63C371.08,173,370.61,173.3,370.07,173.59Zm-1.39-3.4a6.61,6.61,0,0,0,.73-.19c5.86-2.74,11.74-5.44,17.58-8.23,2.41-1.16,4.75-2.47,7.09-3.77a2.86,2.86,0,0,0,1.65-2,18.51,18.51,0,0,0-2.11-1.24,36.78,36.78,0,0,0-4.08-1.48q-13.77-3.9-27.54-7.74c-.34-.09-.69-.14-1.28-.25C363.41,153.73,366,161.9,368.68,170.19Z" transform="translate(-202.41 -38.61)"/><path class="cls-1" d="M407,102a110,110,0,0,0,1.19,13.68,7,7,0,0,0,.76,2c.49.93.49,1.57-.13,2.1a1.72,1.72,0,0,1-2.29-.11,5.08,5.08,0,0,1-1.17-2.16,78.92,78.92,0,0,1-1.3-7.93c-.35-3.78-.48-7.58-.65-11.38a9.12,9.12,0,0,1,.2-2.66A1.92,1.92,0,0,1,407,94.7a12.09,12.09,0,0,1,1.63,2.52,72.21,72.21,0,0,0,16.05,20.27,38.22,38.22,0,0,0,3.59,2.74,8.63,8.63,0,0,0,2,.94c1.44.51,1.95.23,2.25-1.25a18.72,18.72,0,0,0-.16-6.84,163.64,163.64,0,0,0-5-20.49,53.1,53.1,0,0,0-2-5A6.63,6.63,0,0,0,425,87a1.52,1.52,0,0,1,.4-2,1.49,1.49,0,0,1,2.12.18,9.82,9.82,0,0,1,1.8,2.78,76.38,76.38,0,0,1,2.55,7.8c1.36,5.35,2.64,10.73,3.76,16.14a39,39,0,0,1,.5,6.67,9,9,0,0,1-.46,2.8,4.48,4.48,0,0,1-5.89,3.22,14.63,14.63,0,0,1-5.15-2.74,65.71,65.71,0,0,1-10.78-10.76c-2-2.51-3.8-5.24-5.69-7.88-.31-.44-.6-.9-.9-1.35Z" transform="translate(-202.41 -38.61)"/><path class="cls-1" d="M320.43,132.68l10-4.87c2.47-1.2,4.92-2.4,7.4-3.56a7.58,7.58,0,0,1,2.07-.66,1.54,1.54,0,0,1,1.2,2.71,4.92,4.92,0,0,1-1.14.7q-9.36,4.5-18.74,9a6.83,6.83,0,0,1-1.08.45c-1.54.46-2.57-.08-2.84-1.65-1.27-7.43-2.67-14.85-3.65-22.32-1-7.26-1.47-14.57-2.16-21.86a17.88,17.88,0,0,1-.12-3,1.68,1.68,0,0,1,1.7-1.73c.9,0,1.46.66,1.58,1.83q1,10.5,2,21c.59,6.23,1.65,12.4,2.81,18.55C319.78,129,320.07,130.66,320.43,132.68Z" transform="translate(-202.41 -38.61)"/><path class="cls-1" d="M302.59,128.87a31.24,31.24,0,0,0,4.6-4.6,11.93,11.93,0,0,1,1.4-1.44,1.64,1.64,0,0,1,2.28-.07,1.61,1.61,0,0,1,.1,2.14,13.24,13.24,0,0,1-1.74,2.25c-1.81,1.83-3.61,3.66-5.54,5.35-1.72,1.5-3.34,1.07-4-1.13a79.22,79.22,0,0,1-1.84-8.49c-1.14-6.83-2.17-13.68-3.23-20.53-.29-1.82-.58-3.64-.76-5.47a4,4,0,0,1,.27-2.09,1.48,1.48,0,0,1,2.76.06,12.39,12.39,0,0,1,1.08,5.68,6.64,6.64,0,0,0,.16,2q2,12.33,4,24.64C302.27,127.68,302.43,128.2,302.59,128.87Z" transform="translate(-202.41 -38.61)"/><path class="cls-1" d="M289.6,141.57c0-1.2.51-1.89,1.35-2s1.47.37,1.72,1.46q1.44,6.27,2.81,12.57c1.12,5.24,2.14,10.5,3.35,15.71a33.72,33.72,0,0,0,1.88,4.81c.11.25.28.49.37.75a1.51,1.51,0,0,1-.52,1.8,1.37,1.37,0,0,1-1.85,0,7.68,7.68,0,0,1-1.85-2.53,59.25,59.25,0,0,1-2.33-7.66c-1.35-6.45-2.5-12.93-3.74-19.39-.25-1.32-.58-2.62-.86-3.93C289.8,142.61,289.69,142,289.6,141.57Z" transform="translate(-202.41 -38.61)"/><path class="cls-1" d="M287.4,103.58c-.41,3.76.56,7.41,1,11.1.58,4.54,1.31,9.06,2,13.59.18,1.1.52,2.17.69,3.27a1.37,1.37,0,0,1-1,1.59,1.49,1.49,0,0,1-1.81-.49,6.11,6.11,0,0,1-.78-1.47,10.1,10.1,0,0,1-.48-1.95q-1.38-9.63-2.71-19.25c-.21-1.55-.32-3.12-.42-4.68a9.72,9.72,0,0,1,.09-2.16,1.72,1.72,0,0,1,1.93-1.48A1.63,1.63,0,0,1,287.4,103.58Z" transform="translate(-202.41 -38.61)"/><path class="cls-1" d="M327.76,95.63a16.47,16.47,0,0,1,.21-1.76,1.5,1.5,0,0,1,1.43-1.21A1.6,1.6,0,0,1,330.94,94a3,3,0,0,1,.08.67,177,177,0,0,0,3,22.59,8.37,8.37,0,0,1,.14,1.5,1.37,1.37,0,0,1-1,1.39,1.39,1.39,0,0,1-1.75-.62,8.89,8.89,0,0,1-.95-2.49c-.6-3.35-1.19-6.72-1.61-10.1C328.38,103.18,328.12,99.43,327.76,95.63Z" transform="translate(-202.41 -38.61)"/><path class="cls-1" d="M490.33,47.05c.54-2,1.05-4,1.64-5.95a2.83,2.83,0,0,1,.88-1.19,1.3,1.3,0,0,1,1.7-.07,1.43,1.43,0,0,1,.65,1.6c-.5,2.11-1,4.22-1.54,6.32-.37,1.48-1.71,2.11-2.54,1.19A6.59,6.59,0,0,1,490.33,47.05Z" transform="translate(-202.41 -38.61)"/><path class="cls-1" d="M454.9,52.73c.15-1.07.28-2.12.45-3.16a4.37,4.37,0,0,1,.33-1.12,1.54,1.54,0,1,1,2.95.85c-.17,1.38-.33,2.77-.53,4.14a5,5,0,0,1-.38,1.44,1.2,1.2,0,0,1-1.53.71,2.11,2.11,0,0,1-1.13-1.05A6,6,0,0,1,454.9,52.73Z" transform="translate(-202.41 -38.61)"/><path class="cls-1" d="M516.16,42.08a17.57,17.57,0,0,1,1.19-2.69,1.55,1.55,0,0,1,2.2-.53c.73.45.85,1.15.4,2.2-.26.61-.46,1.25-.78,1.84a1.47,1.47,0,0,1-1.8.82A1.93,1.93,0,0,1,516.16,42.08Z" transform="translate(-202.41 -38.61)"/></svg>